RBDS010runT35_grf
version=1
nRows=27
nColumns=19
inDegrees=no
endheader
time	ground_force_r_vx	ground_force_r_vy	ground_force_r_vz	ground_force_r_px	ground_force_r_py	ground_force_r_pz	ground_force_r_mx	ground_force_r_my	ground_force_r_mz	ground_force_l_vx	ground_force_l_vy	ground_force_l_vz	ground_force_l_px	ground_force_l_py	ground_force_l_pz	ground_force_l_mx	ground_force_l_my	ground_force_l_mz
     14.99900000	   -152.27574281	   1449.73792537	    -22.63178631	      2.40587890	      0.00000000	      1.02793176	      0.00000000	     -4.12137192	      0.00000000	      0.00000000	      0.00000000	      0.00000000	      0.00000000	      0.00000000	      0.00000000	      0.00000000	      0.00000000	      0.00000000
     15.00000000	   -149.24079986	   1456.21433662	    -23.16424221	      2.40271334	      0.00000000	      1.02815011	      0.00000000	     -4.22890299	      0.00000000	      0.00000000	      0.00000000	      0.00000000	      0.00000000	      0.00000000	      0.00000000	      0.00000000	      0.00000000	      0.00000000
     15.00100000	   -145.65275043	   1461.57736569	    -23.74682329	      2.39952587	      0.00000000	      1.02839766	      0.00000000	     -4.35272578	      0.00000000	      0.00000000	      0.00000000	      0.00000000	      0.00000000	      0.00000000	      0.00000000	      0.00000000	      0.00000000	      0.00000000
     15.00200000	   -142.06470100	   1466.94039477	    -24.32940436	      2.39633840	      0.00000000	      1.02864520	      0.00000000	     -4.47654857	      0.00000000	      0.00000000	      0.00000000	      0.00000000	      0.00000000	      0.00000000	      0.00000000	      0.00000000	      0.00000000	      0.00000000
     15.00300000	   -138.47665158	   1472.30342384	    -24.91198544	      2.39315094	      0.00000000	      1.02889275	      0.00000000	     -4.60037135	      0.00000000	      0.00000000	      0.00000000	      0.00000000	      0.00000000	      0.00000000	      0.00000000	      0.00000000	      0.00000000	      0.00000000
     15.00400000	   -134.53953890	   1476.92178653	    -25.51298868	      2.38995290	      0.00000000	      1.02915308	      0.00000000	     -4.73163361	      0.00000000	      0.00000000	      0.00000000	      0.00000000	      0.00000000	      0.00000000	      0.00000000	      0.00000000	      0.00000000	      0.00000000
     15.00500000	   -130.42789460	   1481.16781604	    -26.12320301	      2.38674958	      0.00000000	      1.02941981	      0.00000000	     -4.86661559	      0.00000000	      0.00000000	      0.00000000	      0.00000000	      0.00000000	      0.00000000	      0.00000000	      0.00000000	      0.00000000	      0.00000000
     15.00600000	   -126.31625029	   1485.41384555	    -26.73341733	      2.38354625	      0.00000000	      1.02968653	      0.00000000	     -5.00159758	      0.00000000	      0.00000000	      0.00000000	      0.00000000	      0.00000000	      0.00000000	      0.00000000	      0.00000000	      0.00000000	      0.00000000
     15.00700000	   -122.04312712	   1489.28495941	    -27.34500238	      2.38033948	      0.00000000	      1.02995662	      0.00000000	     -5.13838379	      0.00000000	      0.00000000	      0.00000000	      0.00000000	      0.00000000	      0.00000000	      0.00000000	      0.00000000	      0.00000000	      0.00000000
     15.00800000	   -117.44704621	   1492.40624197	    -27.95932886	      2.37712581	      0.00000000	      1.03023345	      0.00000000	     -5.27877846	      0.00000000	      0.00000000	      0.00000000	      0.00000000	      0.00000000	      0.00000000	      0.00000000	      0.00000000	      0.00000000	      0.00000000
     15.00900000	   -112.85096531	   1495.52752453	    -28.57365535	      2.37391214	      0.00000000	      1.03051027	      0.00000000	     -5.41917313	      0.00000000	      0.00000000	      0.00000000	      0.00000000	      0.00000000	      0.00000000	      0.00000000	      0.00000000	      0.00000000	      0.00000000
     15.01000000	   -108.25488440	   1498.64880709	    -29.18798184	      2.37069848	      0.00000000	      1.03078710	      0.00000000	     -5.55956780	      0.00000000	      0.00000000	      0.00000000	      0.00000000	      0.00000000	      0.00000000	      0.00000000	      0.00000000	      0.00000000	      0.00000000
     15.01100000	   -103.22253919	   1500.63343963	    -29.78289663	      2.36747934	      0.00000000	      1.03106603	      0.00000000	     -5.69929506	      0.00000000	      0.00000000	      0.00000000	      0.00000000	      0.00000000	      0.00000000	      0.00000000	      0.00000000	      0.00000000	      0.00000000
     15.01200000	    -98.19019398	   1502.61807216	    -30.37781142	      2.36426019	      0.00000000	      1.03134497	      0.00000000	     -5.83902231	      0.00000000	      0.00000000	      0.00000000	      0.00000000	      0.00000000	      0.00000000	      0.00000000	      0.00000000	      0.00000000	      0.00000000
     15.01300000	    -93.15784878	   1504.60270469	    -30.97272621	      2.36104105	      0.00000000	      1.03162390	      0.00000000	     -5.97874957	      0.00000000	      0.00000000	      0.00000000	      0.00000000	      0.00000000	      0.00000000	      0.00000000	      0.00000000	      0.00000000	      0.00000000
     15.01400000	    -87.87222869	   1505.81907882	    -31.53962907	      2.35782106	      0.00000000	      1.03189969	      0.00000000	     -6.11392146	      0.00000000	      0.00000000	      0.00000000	      0.00000000	      0.00000000	      0.00000000	      0.00000000	      0.00000000	      0.00000000	      0.00000000
     15.01500000	    -82.45997117	   1506.65132374	    -32.09252598	      2.35460063	      0.00000000	      1.03217392	      0.00000000	     -6.24681566	      0.00000000	      0.00000000	      0.00000000	      0.00000000	      0.00000000	      0.00000000	      0.00000000	      0.00000000	      0.00000000	      0.00000000
     15.01600000	    -77.04771365	   1507.48356867	    -32.64542289	      2.35138020	      0.00000000	      1.03244814	      0.00000000	     -6.37970986	      0.00000000	      0.00000000	      0.00000000	      0.00000000	      0.00000000	      0.00000000	      0.00000000	      0.00000000	      0.00000000	      0.00000000
     15.01700000	    -71.52999050	   1507.92538973	    -33.17734907	      2.34816050	      0.00000000	      1.03271891	      0.00000000	     -6.50831305	     -0.00000000	      0.00000000	      0.00000000	      0.00000000	      0.00000000	      0.00000000	      0.00000000	      0.00000000	      0.00000000	      0.00000000
     15.01800000	    -65.80133609	   1507.58636307	    -33.66733379	      2.34494224	      0.00000000	      1.03298281	      0.00000000	     -6.62833421	     -0.00000000	      0.00000000	      0.00000000	      0.00000000	      0.00000000	      0.00000000	      0.00000000	      0.00000000	      0.00000000	      0.00000000
     15.01900000	    -60.07268168	   1507.24733642	    -34.15731851	      2.34172398	      0.00000000	      1.03324670	      0.00000000	     -6.74835536	     -0.00000000	      0.00000000	      0.00000000	      0.00000000	      0.00000000	      0.00000000	      0.00000000	      0.00000000	      0.00000000	      0.00000000
     15.02000000	    -54.34402726	   1506.90830976	    -34.64730323	      2.33850573	      0.00000000	      1.03351059	      0.00000000	     -6.86837652	     -0.00000000	      0.00000000	      0.00000000	      0.00000000	      0.00000000	      0.00000000	      0.00000000	      0.00000000	      0.00000000	      0.00000000
     15.02100000	    -48.36848243	   1505.37703690	    -35.05585026	      2.33529234	      0.00000000	      1.03375973	      0.00000000	     -6.96978409	     -0.00000000	      0.00000000	      0.00000000	      0.00000000	      0.00000000	      0.00000000	      0.00000000	      0.00000000	      0.00000000	      0.00000000
     15.02200000	    -42.39293759	   1503.84576405	    -35.46439729	      2.33207896	      0.00000000	      1.03400887	      0.00000000	     -7.07119166	     -0.00000000	      0.00000000	      0.00000000	      0.00000000	      0.00000000	      0.00000000	      0.00000000	      0.00000000	      0.00000000	      0.00000000
     15.02300000	    -36.41739275	   1502.31449119	    -35.87294432	      2.32886557	      0.00000000	      1.03425801	      0.00000000	     -7.17259924	     -0.00000000	      0.00000000	      0.00000000	      0.00000000	      0.00000000	      0.00000000	      0.00000000	      0.00000000	      0.00000000	      0.00000000
     15.02400000	    -30.32672046	   1499.97394472	    -36.21677283	      2.32565673	      0.00000000	      1.03449515	      0.00000000	     -7.25806291	     -0.00000000	      0.00000000	      0.00000000	      0.00000000	      0.00000000	      0.00000000	      0.00000000	      0.00000000	      0.00000000	      0.00000000
     15.02500000	    -24.17848444	   1497.22876144	    -36.52824207	      2.32245015	      0.00000000	      1.03472627	      0.00000000	     -7.33555464	     -0.00000000	      0.00000000	      0.00000000	      0.00000000	      0.00000000	      0.00000000	      0.00000000	      0.00000000	      0.00000000	      0.00000000
